<svg width="13" height="8" viewBox="0 0 13 8" fill="none" xmlns="http://www.w3.org/2000/svg">
<path d="M5.8343 1.14541L0.426024 6.81897C0.343511 6.90864 0.299497 7.02712 0.30345 7.14892C0.307404 7.27071 0.35901 7.38609 0.447164 7.47022C0.535319 7.55435 0.652977 7.60052 0.774824 7.59878C0.89667 7.59705 1.01297 7.54755 1.09869 7.46094L6.1855 2.12473L11.508 7.22585C11.5521 7.26814 11.6041 7.30132 11.6611 7.32351C11.718 7.3457 11.7787 7.35646 11.8398 7.35517C11.9009 7.35388 11.9612 7.34058 12.0171 7.31601C12.073 7.29144 12.1236 7.2561 12.1659 7.21199C12.2082 7.16789 12.2414 7.11589 12.2635 7.05896C12.2857 7.00203 12.2965 6.94128 12.2952 6.8802C12.2926 6.75682 12.2411 6.63954 12.152 6.55414L6.49313 1.13053C6.44896 1.08813 6.39685 1.05487 6.33979 1.03266C6.28272 1.01045 6.22184 0.999729 6.16062 1.00111C6.09941 1.00249 6.03907 1.01595 5.98307 1.04071C5.92707 1.06548 5.87651 1.10106 5.8343 1.14541Z" fill="black"/>
</svg>
