<svg width="190" height="77" viewBox="0 0 190 77" fill="none" xmlns="http://www.w3.org/2000/svg">
<path d="M78.6719 25.9336L78.125 29H63.4961L64.0234 25.9336H78.6719ZM69.1992 0.5625L64.2578 29H60.5664L65.5078 0.5625H69.1992ZM79.0039 12.7891L78.4766 15.8555H65.7617L66.3086 12.7891H79.0039ZM82.8711 0.5625L82.3242 3.64844H67.8906L68.4375 0.5625H82.8711ZM89.5703 0.5625L94.4922 11.4414L102.812 0.5625H107.324L96.25 14.8203L102.871 29H98.7695L93.7109 17.9062L85.1758 29H80.625L91.9531 14.4688L85.5078 0.5625H89.5703ZM124.609 19.9766L128.223 19.9375C127.832 21.8906 127.096 23.5833 126.016 25.0156C124.948 26.4479 123.6 27.5482 121.973 28.3164C120.358 29.0846 118.548 29.4427 116.543 29.3906C114.746 29.3516 113.236 28.9414 112.012 28.1602C110.801 27.3789 109.85 26.3503 109.16 25.0742C108.483 23.7982 108.034 22.3919 107.812 20.8555C107.604 19.319 107.604 17.7695 107.812 16.207L108.223 13.375C108.483 11.6562 108.952 10.0026 109.629 8.41406C110.319 6.8125 111.211 5.38672 112.305 4.13672C113.411 2.88672 114.714 1.90365 116.211 1.1875C117.721 0.471354 119.434 0.132812 121.348 0.171875C123.262 0.210938 124.863 0.640625 126.152 1.46094C127.441 2.28125 128.418 3.40104 129.082 4.82031C129.759 6.23958 130.124 7.86719 130.176 9.70312H126.543C126.504 8.50521 126.315 7.42448 125.977 6.46094C125.638 5.4974 125.085 4.72917 124.316 4.15625C123.548 3.58333 122.507 3.27734 121.191 3.23828C119.759 3.19922 118.503 3.46615 117.422 4.03906C116.354 4.61198 115.443 5.39323 114.688 6.38281C113.932 7.35938 113.327 8.45312 112.871 9.66406C112.415 10.875 112.09 12.099 111.895 13.3359L111.465 16.2266C111.322 17.2552 111.27 18.349 111.309 19.5078C111.348 20.6536 111.536 21.7409 111.875 22.7695C112.227 23.7852 112.786 24.625 113.555 25.2891C114.336 25.9401 115.391 26.2852 116.719 26.3242C118.177 26.3763 119.421 26.1484 120.449 25.6406C121.478 25.1328 122.331 24.3971 123.008 23.4336C123.685 22.457 124.219 21.3047 124.609 19.9766Z" fill="#E2342D"/>
<path d="M17.793 66.9766L21.4062 66.9375C21.0156 68.8906 20.2799 70.5833 19.1992 72.0156C18.1315 73.4479 16.7839 74.5482 15.1562 75.3164C13.5417 76.0846 11.7318 76.4427 9.72656 76.3906C7.92969 76.3516 6.41927 75.9414 5.19531 75.1602C3.98438 74.3789 3.03385 73.3503 2.34375 72.0742C1.66667 70.7982 1.21745 69.3919 0.996094 67.8555C0.78776 66.319 0.78776 64.7695 0.996094 63.207L1.40625 60.375C1.66667 58.6562 2.13542 57.0026 2.8125 55.4141C3.5026 53.8125 4.39453 52.3867 5.48828 51.1367C6.59505 49.8867 7.89714 48.9036 9.39453 48.1875C10.9049 47.4714 12.6172 47.1328 14.5312 47.1719C16.4453 47.2109 18.0469 47.6406 19.3359 48.4609C20.625 49.2812 21.6016 50.401 22.2656 51.8203C22.9427 53.2396 23.3073 54.8672 23.3594 56.7031H19.7266C19.6875 55.5052 19.4987 54.4245 19.1602 53.4609C18.8216 52.4974 18.2682 51.7292 17.5 51.1562C16.7318 50.5833 15.6901 50.2773 14.375 50.2383C12.9427 50.1992 11.6862 50.4661 10.6055 51.0391C9.53776 51.612 8.6263 52.3932 7.87109 53.3828C7.11589 54.3594 6.51042 55.4531 6.05469 56.6641C5.59896 57.875 5.27344 59.099 5.07812 60.3359L4.64844 63.2266C4.50521 64.2552 4.45312 65.349 4.49219 66.5078C4.53125 67.6536 4.72005 68.7409 5.05859 69.7695C5.41016 70.7852 5.97005 71.625 6.73828 72.2891C7.51953 72.9401 8.57422 73.2852 9.90234 73.3242C11.3607 73.3763 12.6042 73.1484 13.6328 72.6406C14.6615 72.1328 15.5143 71.3971 16.1914 70.4336C16.8685 69.457 17.4023 68.3047 17.793 66.9766ZM25.3125 65.7852L25.3711 65.3359C25.5273 63.9167 25.8789 62.5495 26.4258 61.2344C26.9857 59.9193 27.7214 58.7474 28.6328 57.7188C29.5443 56.6901 30.625 55.8828 31.875 55.2969C33.125 54.7109 34.5182 54.4375 36.0547 54.4766C37.5391 54.5026 38.8086 54.8216 39.8633 55.4336C40.931 56.0456 41.7904 56.8594 42.4414 57.875C43.1055 58.8776 43.5677 60.0104 43.8281 61.2734C44.0885 62.5365 44.1536 63.8385 44.0234 65.1797L43.9844 65.6289C43.8151 67.0482 43.4505 68.4089 42.8906 69.7109C42.3307 71.013 41.5885 72.1719 40.6641 73.1875C39.7526 74.2031 38.6719 75.0039 37.4219 75.5898C36.1719 76.1628 34.7852 76.4297 33.2617 76.3906C31.7904 76.3646 30.5208 76.0521 29.4531 75.4531C28.3984 74.8411 27.5456 74.0339 26.8945 73.0312C26.2435 72.0286 25.7878 70.9023 25.5273 69.6523C25.2669 68.4023 25.1953 67.1133 25.3125 65.7852ZM28.8867 65.3359L28.8477 65.8047C28.7565 66.625 28.75 67.4779 28.8281 68.3633C28.9193 69.2487 29.1276 70.069 29.4531 70.8242C29.7917 71.5794 30.2799 72.1979 30.918 72.6797C31.556 73.1615 32.3828 73.4154 33.3984 73.4414C34.4792 73.4674 35.4297 73.2591 36.25 72.8164C37.0703 72.3607 37.7669 71.7487 38.3398 70.9805C38.9258 70.2122 39.388 69.3594 39.7266 68.4219C40.0781 67.4844 40.3125 66.5534 40.4297 65.6289L40.4688 65.1797C40.5599 64.3594 40.5599 63.5065 40.4688 62.6211C40.3906 61.7227 40.1823 60.8893 39.8438 60.1211C39.5182 59.3398 39.0365 58.7083 38.3984 58.2266C37.7604 57.7318 36.9336 57.4714 35.918 57.4453C34.8372 57.4062 33.8802 57.6211 33.0469 58.0898C32.2266 58.5456 31.5299 59.1641 30.957 59.9453C30.3841 60.7266 29.9219 61.5924 29.5703 62.543C29.2318 63.4805 29.0039 64.4115 28.8867 65.3359ZM55.5859 46L50.3711 76H46.8359L52.0312 46H55.5859ZM65.0391 46L59.8242 76H56.2891L61.4844 46H65.0391ZM74.3945 76.3906C72.9492 76.3646 71.6927 76.0781 70.625 75.5312C69.5703 74.9714 68.7044 74.2227 68.0273 73.2852C67.3633 72.3346 66.888 71.2539 66.6016 70.043C66.3151 68.832 66.2305 67.5625 66.3477 66.2344L66.4258 65.3945C66.556 64.0404 66.888 62.7122 67.4219 61.4102C67.9557 60.0951 68.6654 58.9102 69.5508 57.8555C70.4492 56.8008 71.5039 55.9674 72.7148 55.3555C73.9388 54.7305 75.293 54.4375 76.7773 54.4766C78.2487 54.5026 79.4727 54.8151 80.4492 55.4141C81.4258 56.013 82.1875 56.8073 82.7344 57.7969C83.2943 58.7734 83.6589 59.8737 83.8281 61.0977C83.9974 62.3086 84.0104 63.5521 83.8672 64.8281L83.6523 66.4492H68.3203L68.7891 63.5L80.4883 63.5195L80.5469 63.207C80.6771 62.2695 80.625 61.3646 80.3906 60.4922C80.1562 59.6198 79.7266 58.9036 79.1016 58.3438C78.4896 57.7708 77.6628 57.4714 76.6211 57.4453C75.5404 57.4062 74.6029 57.6276 73.8086 58.1094C73.0143 58.5781 72.3503 59.2161 71.8164 60.0234C71.2826 60.8177 70.8594 61.6901 70.5469 62.6406C70.2474 63.5781 70.0391 64.4961 69.9219 65.3945L69.8438 66.2148C69.7656 67.0482 69.7917 67.888 69.9219 68.7344C70.0521 69.5807 70.2995 70.3555 70.6641 71.0586C71.0417 71.7487 71.5625 72.3151 72.2266 72.7578C72.8906 73.1875 73.7109 73.4154 74.6875 73.4414C75.8724 73.4674 76.9336 73.2135 77.8711 72.6797C78.8216 72.1328 79.6875 71.4427 80.4688 70.6094L82.4805 72.3281C81.8685 73.2266 81.1393 73.9818 80.293 74.5938C79.4466 75.2057 78.5221 75.6615 77.5195 75.9609C76.5169 76.2604 75.4753 76.4036 74.3945 76.3906ZM94.8438 73.4414C95.7031 73.4544 96.5039 73.2917 97.2461 72.9531C97.9883 72.6146 98.6198 72.1328 99.1406 71.5078C99.6615 70.8828 100.033 70.1602 100.254 69.3398L103.613 69.3203C103.405 70.7396 102.852 71.9831 101.953 73.0508C101.068 74.1185 99.9805 74.9518 98.6914 75.5508C97.4154 76.1367 96.0807 76.4167 94.6875 76.3906C93.2031 76.3646 91.9401 76.0586 90.8984 75.4727C89.8698 74.8737 89.043 74.0794 88.418 73.0898C87.793 72.1003 87.3633 70.987 87.1289 69.75C86.8945 68.5 86.8424 67.2174 86.9727 65.9023L87.0508 65.0625C87.207 63.6432 87.5521 62.2956 88.0859 61.0195C88.6198 59.7305 89.3294 58.5911 90.2148 57.6016C91.1133 56.599 92.1745 55.8177 93.3984 55.2578C94.6224 54.6979 95.9961 54.4375 97.5195 54.4766C99.0039 54.5026 100.293 54.8542 101.387 55.5312C102.48 56.1953 103.327 57.1003 103.926 58.2461C104.525 59.3919 104.824 60.694 104.824 62.1523L101.504 62.1328C101.491 61.2995 101.328 60.5312 101.016 59.8281C100.703 59.125 100.241 58.5586 99.6289 58.1289C99.0169 57.6992 98.2617 57.4648 97.3633 57.4258C96.2826 57.3997 95.3385 57.6016 94.5312 58.0312C93.737 58.4609 93.0599 59.0534 92.5 59.8086C91.9531 60.5508 91.5169 61.3776 91.1914 62.2891C90.8789 63.2005 90.6641 64.125 90.5469 65.0625L90.4492 65.8828C90.3711 66.7161 90.3581 67.569 90.4102 68.4414C90.4753 69.3138 90.6576 70.1276 90.957 70.8828C91.2565 71.625 91.7188 72.2305 92.3438 72.6992C92.9688 73.168 93.8021 73.4154 94.8438 73.4414ZM118.633 54.8672L118.145 57.6406H107.031L107.52 54.8672H118.633ZM112.168 49.7305H115.684L112.109 70.8047C112.07 71.2604 112.083 71.6706 112.148 72.0352C112.214 72.3997 112.37 72.6927 112.617 72.9141C112.865 73.1224 113.242 73.2331 113.75 73.2461C114.036 73.2461 114.316 73.2266 114.59 73.1875C114.876 73.1354 115.163 73.0898 115.449 73.0508L115.195 76.0195C114.779 76.1367 114.349 76.2214 113.906 76.2734C113.477 76.3385 113.047 76.3646 112.617 76.3516C111.536 76.3385 110.69 76.0651 110.078 75.5312C109.466 74.9974 109.049 74.3073 108.828 73.4609C108.607 72.6146 108.542 71.7096 108.633 70.7461L112.168 49.7305ZM126.543 54.8672L122.871 76H119.336L123.008 54.8672H126.543ZM123.711 49.3203C123.711 48.7083 123.9 48.2005 124.277 47.7969C124.668 47.3802 125.169 47.1654 125.781 47.1523C126.393 47.1393 126.895 47.3281 127.285 47.7188C127.689 48.1094 127.884 48.6042 127.871 49.2031C127.871 49.8021 127.669 50.3034 127.266 50.707C126.875 51.0977 126.38 51.2995 125.781 51.3125C125.182 51.3255 124.688 51.1497 124.297 50.7852C123.906 50.4076 123.711 49.9193 123.711 49.3203ZM129.414 65.7852L129.473 65.3359C129.629 63.9167 129.98 62.5495 130.527 61.2344C131.087 59.9193 131.823 58.7474 132.734 57.7188C133.646 56.6901 134.727 55.8828 135.977 55.2969C137.227 54.7109 138.62 54.4375 140.156 54.4766C141.641 54.5026 142.91 54.8216 143.965 55.4336C145.033 56.0456 145.892 56.8594 146.543 57.875C147.207 58.8776 147.669 60.0104 147.93 61.2734C148.19 62.5365 148.255 63.8385 148.125 65.1797L148.086 65.6289C147.917 67.0482 147.552 68.4089 146.992 69.7109C146.432 71.013 145.69 72.1719 144.766 73.1875C143.854 74.2031 142.773 75.0039 141.523 75.5898C140.273 76.1628 138.887 76.4297 137.363 76.3906C135.892 76.3646 134.622 76.0521 133.555 75.4531C132.5 74.8411 131.647 74.0339 130.996 73.0312C130.345 72.0286 129.889 70.9023 129.629 69.6523C129.368 68.4023 129.297 67.1133 129.414 65.7852ZM132.988 65.3359L132.949 65.8047C132.858 66.625 132.852 67.4779 132.93 68.3633C133.021 69.2487 133.229 70.069 133.555 70.8242C133.893 71.5794 134.382 72.1979 135.02 72.6797C135.658 73.1615 136.484 73.4154 137.5 73.4414C138.581 73.4674 139.531 73.2591 140.352 72.8164C141.172 72.3607 141.868 71.7487 142.441 70.9805C143.027 70.2122 143.49 69.3594 143.828 68.4219C144.18 67.4844 144.414 66.5534 144.531 65.6289L144.57 65.1797C144.661 64.3594 144.661 63.5065 144.57 62.6211C144.492 61.7227 144.284 60.8893 143.945 60.1211C143.62 59.3398 143.138 58.7083 142.5 58.2266C141.862 57.7318 141.035 57.4714 140.02 57.4453C138.939 57.4062 137.982 57.6211 137.148 58.0898C136.328 58.5456 135.632 59.1641 135.059 59.9453C134.486 60.7266 134.023 61.5924 133.672 62.543C133.333 63.4805 133.105 64.4115 132.988 65.3359ZM157.031 59.5938L154.18 76H150.645L154.316 54.8672H157.656L157.031 59.5938ZM155.391 64.6328L153.945 64.5938C154.128 63.3307 154.46 62.0938 154.941 60.8828C155.436 59.6589 156.081 58.5586 156.875 57.582C157.682 56.6055 158.639 55.8372 159.746 55.2773C160.866 54.7044 162.142 54.4375 163.574 54.4766C164.707 54.5026 165.651 54.724 166.406 55.1406C167.174 55.5443 167.773 56.0977 168.203 56.8008C168.633 57.5039 168.919 58.3177 169.062 59.2422C169.206 60.1536 169.219 61.1237 169.102 62.1523L166.797 76H163.242L165.586 62.0938C165.677 61.2474 165.645 60.4857 165.488 59.8086C165.345 59.1185 165.02 58.5716 164.512 58.168C164.017 57.7513 163.301 57.5299 162.363 57.5039C161.374 57.4779 160.482 57.6667 159.688 58.0703C158.893 58.474 158.197 59.0273 157.598 59.7305C157.012 60.4206 156.53 61.1953 156.152 62.0547C155.788 62.901 155.534 63.7604 155.391 64.6328ZM185.137 70.2773C185.254 69.4701 185.104 68.8385 184.688 68.3828C184.284 67.9271 183.75 67.582 183.086 67.3477C182.435 67.1003 181.797 66.8984 181.172 66.7422C180.391 66.5469 179.603 66.306 178.809 66.0195C178.014 65.7331 177.285 65.3685 176.621 64.9258C175.97 64.4701 175.449 63.9102 175.059 63.2461C174.681 62.569 174.512 61.7487 174.551 60.7852C174.603 59.7435 174.876 58.8255 175.371 58.0312C175.879 57.237 176.53 56.5729 177.324 56.0391C178.132 55.5052 179.01 55.1081 179.961 54.8477C180.911 54.5872 181.855 54.4635 182.793 54.4766C184.121 54.5026 185.326 54.776 186.406 55.2969C187.5 55.8177 188.366 56.5664 189.004 57.543C189.642 58.5195 189.941 59.7044 189.902 61.0977L186.406 61.0781C186.432 60.3359 186.283 59.6979 185.957 59.1641C185.632 58.6302 185.182 58.2201 184.609 57.9336C184.036 57.6341 183.385 57.4779 182.656 57.4648C181.966 57.4518 181.289 57.5625 180.625 57.7969C179.961 58.0182 179.395 58.3698 178.926 58.8516C178.457 59.3203 178.171 59.9323 178.066 60.6875C177.988 61.2474 178.073 61.7096 178.32 62.0742C178.568 62.4258 178.906 62.7122 179.336 62.9336C179.779 63.1419 180.241 63.3177 180.723 63.4609C181.217 63.5911 181.667 63.7083 182.07 63.8125C183.138 64.112 184.193 64.4896 185.234 64.9453C186.276 65.401 187.122 66.0326 187.773 66.8398C188.424 67.6341 188.717 68.6823 188.652 69.9844C188.6 71.0911 188.307 72.0547 187.773 72.875C187.253 73.6823 186.576 74.3529 185.742 74.8867C184.922 75.4076 184.017 75.7917 183.027 76.0391C182.038 76.2865 181.048 76.4036 180.059 76.3906C178.691 76.3646 177.415 76.0846 176.23 75.5508C175.059 75.0039 174.121 74.2227 173.418 73.207C172.715 72.1784 172.383 70.9284 172.422 69.457L175.957 69.4766C175.957 70.3229 176.133 71.0391 176.484 71.625C176.849 72.1979 177.35 72.6341 177.988 72.9336C178.626 73.2331 179.355 73.3893 180.176 73.4023C180.866 73.4154 181.569 73.3242 182.285 73.1289C183.014 72.9336 183.639 72.6081 184.16 72.1523C184.694 71.6836 185.02 71.0586 185.137 70.2773Z" fill="#004197"/>
</svg>
