<svg width="96" height="97" viewBox="0 0 96 97" fill="none" xmlns="http://www.w3.org/2000/svg">
<g filter="url(#filter0_d_1_166)">
<path d="M48 80.9031C65.6731 80.9031 80 66.5762 80 48.9031C80 31.23 65.6731 16.9031 48 16.9031C30.3269 16.9031 16 31.23 16 48.9031C16 66.5762 30.3269 80.9031 48 80.9031Z" fill="white"/>
</g>
<path d="M50.383 48.9001L42.441 40.9641C42.3019 40.8246 42.1917 40.659 42.1166 40.4769C42.0415 40.2948 42.003 40.0996 42.0034 39.9026C42.0037 39.7056 42.0428 39.5106 42.1185 39.3287C42.1942 39.1469 42.305 38.9817 42.4445 38.8426C42.584 38.7035 42.7496 38.5933 42.9317 38.5182C43.1138 38.4431 43.309 38.4046 43.506 38.405C43.703 38.4053 43.898 38.4444 44.0799 38.5201C44.2617 38.5958 44.4269 38.7066 44.566 38.8461L53.566 47.8381C53.8374 48.1113 53.9933 48.4783 54.0015 48.8633C54.0097 49.2483 53.8695 49.6216 53.61 49.9061L44.574 58.9601C44.4358 59.1035 44.2705 59.218 44.0876 59.2969C43.9047 59.3758 43.7079 59.4174 43.5088 59.4194C43.3096 59.4214 43.112 59.3838 42.9276 59.3086C42.7432 59.2334 42.5755 59.1223 42.4345 58.9817C42.2935 58.841 42.1818 58.6737 42.1062 58.4895C42.0305 58.3052 41.9922 58.1078 41.9937 57.9086C41.9951 57.7095 42.0362 57.5126 42.1146 57.3295C42.1929 57.1464 42.3069 56.9807 42.45 56.8421L50.383 48.9001Z" fill="#4A4B4D"/>
<defs>
<filter id="filter0_d_1_166" x="0" y="0.903076" width="96" height="96" filterUnits="userSpaceOnUse" color-interpolation-filters="sRGB">
<feFlood flood-opacity="0" result="BackgroundImageFix"/>
<feColorMatrix in="SourceAlpha" type="matrix" values="0 0 0 0 0 0 0 0 0 0 0 0 0 0 0 0 0 0 127 0" result="hardAlpha"/>
<feOffset/>
<feGaussianBlur stdDeviation="8"/>
<feColorMatrix type="matrix" values="0 0 0 0 0 0 0 0 0 0 0 0 0 0 0 0 0 0 0.078 0"/>
<feBlend mode="normal" in2="BackgroundImageFix" result="effect1_dropShadow_1_166"/>
<feBlend mode="normal" in="SourceGraphic" in2="effect1_dropShadow_1_166" result="shape"/>
</filter>
</defs>
</svg>
